Patient4_TMGait_0pt4_01_left_15_EMG.mot
version=1
nRows=13
nColumns=33
inDegrees=no
endheader
time	1LAddLong	2LGlutMax	3LGlutMed	4LIliopsoas	5LSemiMemb	6LBicFemLong	7LRecFem	8LVastMed	9LVastLat	10LGasMed	11LTibAnt	12lTibPost	13LPeroneusLong	14LSol	15LExtDigLong	16LFlexDigLong	17RAddLong	18RGlutMax	19RGlutMed	20RIliopsoas	21RSemiMemb	22RBicFemLong	23RRecFem	24RVastMed	25RVastLat	26RGasMed	27RTibAnt	28RTibPost	29RPeroneusLong	30RSol	31RExtDigLong	32RFlexDigLong
20.013	0.007324	-0.081635	-0.026855	-0.014038	-0.041199	-0.024261	-0.003967	0.006561	0.10483	-0.01236	-0.10162	0.001221	0.074615	-0.10696	-0.050354	-0.019073	-0.05661	0.19989	0.057068	0.021973	-0.10788	0.26337	-0.28412	0.003052	-0.00412	-0.000153	0.011597	-0.005035	-0.023346	-0.026855	-0.006256	0.004272
20.014	0.012054	-0.054474	-0.026855	0.006104	0.021973	-0.055237	-0.004578	0.002747	0.10712	-0.007935	-0.19714	0.006714	0.070801	-0.050049	0.13367	-0.016174	0.024719	0.19272	-0.32516	-0.04776	0.067139	0.10025	-0.092926	-0.047455	-0.080566	-0.007935	0.044708	-0.033264	-0.20737	-0.11414	-0.003815	0.010223
20.015	0.010071	-0.048981	-0.028076	-0.00351	0.008087	-0.080261	0.002899	0.00412	0.10544	0.007629	-0.17975	0.001373	0.017548	-0.052643	0.59097	-0.01297	0.033875	0.14603	-0.2507	-0.15625	0.26855	0.059357	-0.00885	-0.049133	-0.20004	0.002899	-0.039673	-0.058441	1.0355	0.007935	-0.007782	0.007324
20.016	0.020599	-0.061188	-0.014954	-0.003967	-0.054321	-0.059814	-0.016022	0.000153	0.096741	0.039673	-0.10361	0.000763	0.027008	-0.075531	-0.25207	-0.017853	0.031891	0.12558	-0.29633	-0.13565	0.12222	0.12741	0.026093	0.045929	-0.12589	0.00885	0.072327	-0.051117	0.37476	0.08606	-0.010681	0.014343
20.017	0.019531	-0.086823	-0.025482	0.007324	0.017242	-0.046082	0.003662	0.000458	0.098877	0.010681	-0.13168	-0.001984	0.033264	-0.054474	-0.2388	-0.012665	-0.003357	-0.016632	-0.43732	-0.050507	-0.18112	0.17258	0.049438	0.068054	-0.05661	0.019226	0.051575	-0.042114	0.26688	0.048981	-0.001831	0.015869
20.018	0.015564	-0.081329	-0.044861	0.007629	0.048828	-0.027466	0.011292	-0.003052	0.076904	-0.005341	-0.077362	0.002289	0.052032	-0.02533	-0.2092	0.002289	0.000916	0.039063	-0.17166	0.1297	-0.12634	0.098419	0.088348	0.062256	-0.068665	-0.000763	-0.029907	-0.03418	0.088348	-0.001984	-0.002136	0.009308
20.019	0.01236	-0.056458	-0.059357	0.007324	0.010071	-0.007172	0.022583	0.007019	0.079346	-0.013733	0.078583	0.003815	0.042419	-0.077515	-0.088654	-0.00473	-0.00946	0.096741	-0.21484	0.20828	-0.08255	0.19684	-0.094757	0.02594	-0.018311	-0.00824	-0.054626	-0.041199	-0.27618	-0.067139	-0.003357	0.00351
20.02	0.006104	-0.065308	-0.07431	0.006409	-0.019226	-0.014343	0.005646	0.001068	0.088654	-0.029297	0.10407	0.000153	0.031128	-0.09613	-0.048523	0.006104	-0.033569	0.097504	-0.57861	0.18951	-0.050201	0.24735	-0.16632	0.034332	0.037384	-0.017242	-0.099182	0.016785	-0.13016	0.011292	-0.005341	0.005493
20.021	0.006714	-0.055389	-0.049438	-0.01297	-0.019684	-0.030518	0.000916	0.00351	0.089417	-0.02243	0.000458	0.003204	0.025177	-0.045013	0.018616	-0.007782	-0.045013	0.13916	-0.48813	0.11444	-0.015869	0.40665	-0.070343	0.03479	0.05249	-0.016327	-0.056763	0.034637	-0.18555	0.013733	-0.003052	0.007629
20.022	0.013733	-0.044403	-0.049286	0.000305	-0.003967	-0.032959	0.008698	0.000916	0.092773	-0.014343	-0.012665	0.001526	0	-0.028687	0.017395	-0.006866	-0.005493	0.11978	-0.10544	0.10834	0.10132	0.21057	-0.005493	-0.016022	0.058289	0.012665	0.041809	-0.030975	-0.57877	-0.009918	-0.003357	-0.000305
20.023	0.016479	-0.049438	-0.068207	0.00946	0.016022	-0.035706	-0.003204	0.002747	0.092621	0.000153	-0.005188	0.010681	-0.013275	-0.016022	0.014038	-0.010071	-0.007172	0.10757	-0.052032	0.10681	-0.13855	-0.060883	0.024719	0.03418	0.045929	0.035553	0.071106	-0.038605	-0.63843	0.026093	-0.001526	0.000153
20.024	0.013123	-0.038757	-0.05127	0.011444	0.012665	0.007782	0.009613	0.003662	0.080109	-0.020752	0.029907	-0.001221	0.00061	-0.017548	0.053253	0.001373	-0.029144	0.19943	0.17502	0.007935	-0.062866	-0.11139	0.021515	0.074768	0.037842	-0.007172	0.079346	-0.019379	-0.55954	0.041504	-0.002136	0.000153
20.025	0.013885	-0.048065	-0.034332	0.004425	-0.001831	0.018158	0.020142	0.007629	0.082245	-0.021515	0.043793	0.002289	-0.009613	-0.007324	0.10239	-0.007019	-0.032349	0.16815	0.32944	-0.054626	0.11963	0.00473	0.090332	0.071564	0.02121	0.02243	0.076294	-0.013275	-0.11429	-0.006714	-0.00061	0.001526
